<svg viewBox="0 0 64 64" xmlns="http://www.w3.org/2000/svg">
  <rect width="64" height="64" rx="14" fill="#1e3a5f"/>
  <g transform="translate(32,30)" fill="#ffffff">
    <!-- Feathers -->
    <path d="M0 18 L-16 -18 Q-14 -22 -8 -20 L1 16 Z" opacity="0.7"/>
    <path d="M0 18 L-8 -22 Q-4 -25 2 -22 L1 17 Z" opacity="0.8"/>
    <path d="M0 18 L0 -25 Q4 -27 6 -24 L1 18 Z" opacity="0.85"/>
    <path d="M0 18 L8 -22 Q12 -20 14 -16 L1 17 Z" opacity="0.8"/>
    <path d="M0 18 L16 -18 Q18 -12 16 -8 L1 16 Z" opacity="0.7"/>
    <!-- Cork -->
    <ellipse cx="0" cy="22" rx="8" ry="6" opacity="0.95"/>
    <ellipse cx="0" cy="20" rx="8" ry="3"/>
  </g>
</svg>
